<?xml version="1.0" standalone="no"?>
<!DOCTYPE svg PUBLIC "-//W3C//DTD SVG 20010904//EN"
 "http://www.w3.org/TR/2001/REC-SVG-20010904/DTD/svg10.dtd">
<svg version="1.0" xmlns="http://www.w3.org/2000/svg"
 width="736.000000pt" height="491.000000pt" viewBox="0 0 736.000000 491.000000"
 preserveAspectRatio="xMidYMid meet">

<g transform="translate(0.000000,491.000000) scale(0.100000,-0.100000)"
fill="#000000" stroke="none">
<path d="M0 2455 l0 -2455 3680 0 3680 0 0 2455 0 2455 -3680 0 -3680 0 0
-2455z m3178 381 l502 -379 303 228 c814 614 936 705 941 705 3 0 6 -71 5
-157 l0 -158 -87 -64 c-48 -35 -329 -246 -625 -469 l-537 -405 -213 161 c-116
88 -336 253 -487 367 -151 114 -281 210 -287 212 -10 4 -13 -136 -13 -681 l0
-686 -125 0 -125 0 0 946 0 945 123 -93 c67 -52 348 -264 625 -472z m1752
-701 l0 -625 -125 0 -125 0 0 370 c0 204 -3 370 -7 370 -4 0 -229 -167 -500
-372 l-493 -371 -370 279 -370 279 0 158 c0 131 2 157 14 150 7 -4 174 -129
370 -277 l356 -269 577 434 c317 239 595 449 617 466 23 18 44 33 49 33 4 0 7
-281 7 -625z"/>
</g>
</svg>
